Coordinates
version=1
nRows=29
nColumns=24
inDegrees=yes

Units are S.I. units (second, meters, Newtons, ...)
Angles are in degrees.

endheader
time	pelvis_tilt	pelvis_list	pelvis_rotation	pelvis_tx	pelvis_ty	pelvis_tz	hip_flexion_r	hip_adduction_r	hip_rotation_r	knee_angle_r	ankle_angle_r	subtalar_angle_r	mtp_angle_r	hip_flexion_l	hip_adduction_l	hip_rotation_l	knee_angle_l	ankle_angle_l	subtalar_angle_l	mtp_angle_l	lumbar_extension	lumbar_bending	lumbar_rotation
      1.17050000	     -3.19167032	     -5.07458492	     -3.66284922	     -0.07458650	      1.00110753	      0.35409788	    -11.58958763	      9.13794015	      6.36918252	     -9.15921500	     14.81740264	     -3.57836837	      1.71652388	     25.12124148	     -6.56615379	      0.76664362	      6.10791193	      0.30522749	     -9.17644656	     -3.93625442	     -1.69119240	      3.54931592	      8.85607031
      1.17466667	     -3.14702469	     -4.89851084	     -3.74948365	     -0.06884363	      1.00039191	      0.35362792	    -11.73726621	      8.89040345	      6.30847571	     -9.65431456	     15.06686006	     -3.40787015	      1.66737641	     25.20538088	     -6.33289530	      0.90918083	      5.42395278	      0.44850949	     -9.26364778	     -3.80054541	     -1.69863679	      3.34727381	      8.98512455
      1.17883333	     -3.09690654	     -4.70937792	     -3.81958369	     -0.06305382	      0.99971019	      0.35315110	    -11.90804903	      8.64302442	      6.34953233	    -10.10800661	     15.17576149	     -3.49261950	      1.66211976	     25.29078134	     -6.07906559	      1.07232016	      4.68392578	      0.53754781	     -9.39487216	     -3.76698565	     -1.72960414	      3.14090146	      9.02055146
      1.18300000	     -3.06045429	     -4.50852400	     -3.88759545	     -0.05723419	      0.99902257	      0.35263118	    -12.01267036	      8.37344935	      6.23900721	    -10.67468109	     15.45351716	     -3.22781468	      1.63544897	     25.40814386	     -5.80915035	      1.19711770	      3.87168429	      0.59153084	     -9.49956081	     -3.55359095	     -1.70095735	      2.90264438	      9.21074155
      1.18716667	     -3.00499260	     -4.29439018	     -3.93093799	     -0.05134802	      0.99838848	      0.35211239	    -12.16924565	      8.10885014	      6.25970378	    -11.17093667	     15.55936644	     -3.28739262	      1.62731172	     25.50680571	     -5.51668154	      1.35011677	      3.02763042	      0.60066143	     -9.63998622	     -3.44323090	     -1.70241850	      2.64456966	      9.25265698
      1.19133333	     -2.93514614	     -4.08830970	     -3.97815578	     -0.04547004	      0.99780402	      0.35157374	    -12.31062995	      7.85239221	      6.25747918	    -11.72636371	     15.61363859	     -3.38690477	      1.62688408	     25.59996214	     -5.23103896	      1.46895024	      2.14234331	      0.55237450	     -9.79268032	     -3.38185737	     -1.74067506	      2.42015551	      9.29732826
      1.19550000	     -2.87324886	     -3.86650491	     -4.01003146	     -0.03953794	      0.99723119	      0.35100943	    -12.44005312	      7.58494497	      6.25754928	    -12.28983278	     15.65593240	     -3.46754997	      1.63016879	     25.70866347	     -4.92314082	      1.58384086	      1.22697030	      0.44674846	     -9.94773593	     -3.32017242	     -1.76121360	      2.17093445	      9.34923637
      1.19966667	     -2.85812065	     -3.64245251	     -4.04909971	     -0.03357580	      0.99661348	      0.35040621	    -12.46380026	      7.30603655	      6.13288970	    -12.97384043	     15.82881792	     -3.24760108	      1.67372094	     25.85759495	     -4.61235833	      1.74936785	      0.32098512	      0.16470368	    -10.29785440	     -2.90105206	     -1.67271006	      1.90759024	      9.52595600
      1.20383333	     -2.76712295	     -3.40623972	     -4.05699330	     -0.02757823	      0.99613546	      0.34979085	    -12.60383483	      7.03296390	      6.13998236	    -13.57466587	     15.78233772	     -3.42253013	      1.68090379	     25.94156552	     -4.27854627	      1.84336797	     -0.62856206	     -0.01120673	    -10.43213523	     -2.83568390	     -1.72735161	      1.64286978	      9.53331803
      1.20800000	     -2.69956964	     -3.16449966	     -4.06487143	     -0.02154043	      0.99566708	      0.34915667	    -12.69607978	      6.75651653	      6.12882165	    -14.22107813	     15.71396626	     -3.57808956	      1.69426094	     26.04783096	     -3.93938007	      1.92539176	     -1.57901994	     -0.27491256	    -10.60035247	     -2.76151893	     -1.73335403	      1.36342280	      9.55017597
      1.21216667	     -2.69862931	     -2.93448346	     -4.07791862	     -0.01548609	      0.99512870	      0.34849891	    -12.67680871	      6.49262671	      6.07143764	    -14.95401454	     15.69063966	     -3.56680394	      1.83845789	     26.19112973	     -3.60801387	      2.19285065	     -2.45487749	     -0.84487780	    -11.22704158	     -2.23628285	     -1.61386673	      1.09485917	      9.62382821
      1.21633333	     -2.61079791	     -2.66729650	     -4.06090586	     -0.00936425	      0.99475975	      0.34782565	    -12.76519082	      6.19735610	      6.03548600	    -15.64530956	     15.53853369	     -3.74311947	      1.88873395	     26.27000905	     -3.23489255	      2.25194206	     -3.40130136	     -1.17713220	    -11.35342764	     -2.08307784	     -1.61677749	      0.74780794	      9.61892757
      1.22050000	     -2.54779885	     -2.42167908	     -4.05217379	     -0.00327160	      0.99438396	      0.34711069	    -12.78977946	      5.92247105	      5.98926261	    -16.40397330	     15.31829713	     -3.91344257	      3.51907785	     26.36312482	     -2.88290730	      2.38488403	     -4.31082069	     -1.73387094	    -11.76832037	      1.62857587	     -1.62147532	      0.48920893	      9.60312162
      1.22466667	     -2.49406645	     -2.15550562	     -4.03364725	      0.00286745	      0.99404607	      0.34637433	    -12.78171974	      5.62702097	      5.90531959	    -17.20740036	     15.11731163	     -4.01520891	      3.53778197	     26.47186383	     -2.51120080	      2.44431046	     -5.24601066	     -2.15136248	    -11.92135409	      1.63177195	     -1.58844673	      0.17903005	      9.62248780
      1.22883333	     -2.44161829	     -1.88404236	     -4.01357986	      0.00901684	      0.99374579	      0.34561731	    -12.74500927	      5.32535989	      5.79958906	    -18.05993074	     14.87886911	     -4.10665900	      3.57861218	     26.57294424	     -2.13259466	      2.52392052	     -6.16566840	     -2.58782006	    -12.14366174	      1.64083017	     -1.55013077	     -0.13680104	      9.62424475
      1.23300000	     -2.39070631	     -1.62244302	     -3.99578504	      0.01514046	      0.99347865	      0.34481119	    -12.66087429	      5.02567893	      5.64556214	    -18.99864456	     14.65764577	     -4.11331965	      3.72402208	     26.65676378	     -1.75677193	      2.68335473	     -7.04736767	     -3.10212094	    -12.56421502	      1.67371269	     -1.51529353	     -0.40737823	      9.61473161
      1.23716667	     -2.31421813	     -1.33505011	     -3.95989042	      0.02133207	      0.99330540	      0.34400921	    -12.60654662	      4.70442342	      5.49765520	    -19.91772479	     14.29573294	     -4.20882801	      3.80134488	     26.72291786	     -1.35928579	      2.72313037	     -7.96044212	     -3.46397552	    -12.68808798	      1.68577381	     -1.50537861	     -0.75477665	      9.60208913
      1.24133333	     -2.22244377	     -1.05546461	     -3.92776650	      0.02751136	      0.99319153	      0.34317175	    -12.52824944	      4.38153967	      5.29601693	    -20.90673014	     13.91080686	     -4.28503352	      3.87029702	     26.76962976	     -0.97072822	      2.73421847	     -8.87339456	     -3.78839836	    -12.82700053	      1.69247796	     -1.49847226	     -1.05811282	      9.58627819
      1.24550000	     -2.17625036	     -0.75890173	     -3.89770298	      0.03366975	      0.99303892	      0.34228068	    -12.34510677	      4.02633350	      5.03011593	    -22.00301277	     13.61707637	     -4.12017849	      4.22230205	     26.84311241	     -0.55680635	      2.84450689	     -9.73983128	     -4.21272525	    -13.15604293	      1.72179776	     -1.47027996	     -1.37418415	      9.53230933
      1.24966667	     -2.03855867	     -0.45371460	     -3.85591994	      0.03987619	      0.99308357	      0.34139854	    -12.26884155	      3.65975997	      4.77105379	    -23.04699380	     13.00946561	     -4.18053574	      7.72070249	     26.80798665	     -0.13380128	      2.88384698	    -10.59983120	     -4.49700781	    -13.34313527	      1.88501161	     -1.54015137	     -1.73209113	      9.50433737
      1.25383333	     -1.96019447	     -0.15924121	     -3.81355609	      0.04607232	      0.99307678	      0.34050857	    -12.08647470	      3.30507907	      4.49512138	    -24.17574149	     12.46228003	     -4.16652528	      7.74615783	     26.84806210	      0.26595644	      2.85291270	    -11.49076173	     -4.65777506	    -13.33601021	      1.87858134	     -1.52999031	     -2.06555127	      9.47543944
      1.25800000	     -1.84915378	      0.14016933	     -3.76701282	      0.05224398	      0.99313225	      0.33957408	    -11.89585024	      2.92366370	      4.13795604	    -25.37879888	     11.96386444	     -4.00973973	      7.86989606	     26.85043293	      0.67400187	      2.79478480	    -12.38111220	     -4.77642924	    -13.34134752	      1.85495015	     -1.56453418	     -2.39236783	      9.41514970
      1.26216667	     -1.71529004	      0.44785188	     -3.71334593	      0.05842619	      0.99326613	      0.33862611	    -11.70880437	      2.52523900	      3.75865155	    -26.60273503	     11.35876480	     -3.87273078	      8.08064738	     26.80820951	      1.09359819	      2.74083277	    -13.23723492	     -4.84280059	    -13.33313648	      1.81221196	     -1.62822964	     -2.73970497	      9.35150799
      1.26633333	     -1.56915584	      0.72786550	     -3.66278657	      0.06458805	      0.99347371	      0.33768005	    -11.51715338	      2.15340829	      3.40098575	    -27.83461591	     10.58289047	     -3.84715065	      8.13094886	     26.73693998	      1.48490465	      2.69439809	    -14.07121411	     -4.84911284	    -13.38131530	      1.80014117	     -1.70349840	     -3.04277457	      9.33110729
      1.27050000	     -1.43669078	      1.03297289	     -3.60763302	      0.07074637	      0.99367758	      0.33671713	    -11.26830163	      1.73516928	      2.97397914	    -29.12699729	      9.74876255	     -3.74906970	     11.43320760	     26.67606065	      1.89038049	      2.56347712	    -14.90443865	     -4.67348407	    -13.11728981	      1.02096553	     -1.78112945	     -3.38874273	      9.17127036
      1.27466667	     -1.28386876	      1.33029639	     -3.53936346	      0.07688976	      0.99396136	      0.33569875	    -11.01977169	      1.31284735	      2.51962014	    -30.44726366	      8.89569139	     -3.59268770	     11.45479443	     26.54778917	      2.31287740	      2.55540119	    -15.63917563	     -4.65320254	    -13.17461480	      1.01497692	     -1.86663146	     -3.70991273	      9.16075759
      1.27883333	     -1.12529200	      1.62468416	     -3.46956729	      0.08299083	      0.99427373	      0.33467058	    -10.74328804	      0.87895333	      2.03768543	    -31.81119864	      7.99995017	     -3.42770900	     11.50293889	     26.40348548	      2.72904580	      2.51242932	    -16.35783878	     -4.54678585	    -13.17006450	      1.00156847	     -1.97184586	     -4.03256681	      9.10297021
      1.28300000	     -0.94012180	      1.91057636	     -3.38929286	      0.08904913	      0.99463736	      0.33361350	    -10.46714730	      0.43444863	      1.51097754	    -33.21032923	      7.09383832	     -3.19759063	     11.74813734	     26.22774198	      3.13395050	      2.40094387	    -17.07395501	     -4.33154291	    -13.04107608	      0.92527355	     -2.12851932	     -4.33721351	      8.93414763
      1.28716667	     -0.79196117	      2.17130772	     -3.30794421	      0.09506120	      0.99500392	      0.33255151	    -10.13061623	      0.01745328	      1.01776258	    -34.61161675	      6.00340205	     -3.10301422	     11.79059532	     26.05403899	      3.52278889	      2.37681396	    -17.71490297	     -4.16016823	    -13.06479490	      0.91035026	     -2.23426819	     -4.62463276	      8.90588252
